<svg xmlns="http://www.w3.org/2000/svg" viewBox="0 0 88.04 71"><defs><style>.cls-1{fill:#c375cf;}.cls-2{fill:#731266;}.cls-3{fill:#f3d4ff;}.cls-4{fill:#93358d;}</style></defs><title>Asset 9</title><g id="Layer_2" data-name="Layer 2"><g id="Layer_1-2" data-name="Layer 1"><path class="cls-1" d="M86.62,71H1.42A1.43,1.43,0,0,1,0,69.58V1.42A1.43,1.43,0,0,1,1.42,0h85.2A1.43,1.43,0,0,1,88,1.42V69.58A1.43,1.43,0,0,1,86.62,71Z"/><path class="cls-2" d="M88,11.36H0V1.42A1.43,1.43,0,0,1,1.42,0h85.2A1.43,1.43,0,0,1,88,1.42Z"/><rect class="cls-3" x="7.1" y="4.26" width="2.84" height="2.84"/><rect class="cls-3" x="12.78" y="4.26" width="2.84" height="2.84"/><rect class="cls-3" x="18.46" y="4.26" width="2.84" height="2.84"/><rect class="cls-3" x="72.42" y="4.26" width="8.52" height="2.84"/><path class="cls-3" d="M9.94,48.28a1.43,1.43,0,0,1-1.42-1.42V21.3a1.43,1.43,0,0,1,1.42-1.42H78.1a1.43,1.43,0,0,1,1.42,1.42V46.86a1.43,1.43,0,0,1-1.42,1.42Z"/><rect class="cls-4" x="7.1" y="52.54" width="2.84" height="2.84"/><rect class="cls-4" x="7.1" y="58.22" width="2.84" height="2.84"/><rect class="cls-4" x="12.78" y="52.54" width="22.72" height="2.84"/><rect class="cls-4" x="12.78" y="58.22" width="2.84" height="2.84"/><rect class="cls-4" x="18.46" y="58.22" width="28.4" height="2.84"/><rect class="cls-4" x="38.34" y="52.54" width="2.84" height="2.84"/><rect class="cls-4" x="44.02" y="52.54" width="2.84" height="2.84"/><rect class="cls-1" x="58.22" y="24.14" width="8.52" height="2.84"/><rect class="cls-1" x="69.58" y="24.14" width="5.68" height="2.84"/><path class="cls-2" d="M60.82,43a1.42,1.42,0,0,0-2.36,0L51.12,54v1.42h4.26v5.68a1.43,1.43,0,0,0,1.42,1.42h5.68a1.43,1.43,0,0,0,1.42-1.42V55.38h4.26V54Z"/></g></g></svg>