<svg xmlns="http://www.w3.org/2000/svg" viewBox="0 0 84.69 84.78"><defs><style>.cls-1{fill:#fca677;}.cls-2{fill:#e65300;}.cls-3{fill:#4a4f54;}.cls-4{fill:#f2f2f2;}.cls-5{fill:#c9d0e1;}</style></defs><title>Asset 2</title><g id="Layer_2" data-name="Layer 2"><g id="Layer_1-2" data-name="Layer 1"><path class="cls-1" d="M84.69,81.25a3.59,3.59,0,0,1-1.06,2.64,3.83,3.83,0,0,1-2.47.89H3.53a4.21,4.21,0,0,1-2.47-.89A3.55,3.55,0,0,1,0,81.25V29.55H84.69Z"/><path class="cls-2" d="M83.63,83.89a3.83,3.83,0,0,1-2.47.89H3.53a4.21,4.21,0,0,1-2.47-.89L42.34,48.43Z"/><path class="cls-3" d="M84.69,29.55l-12,8.65-28,20.11a4,4,0,0,1-4.77,0L12,38.2,0,29.55l12-8.64L38.11,2.21,40.05.79a4,4,0,0,1,4.76,0l1.94,1.42,12.53,9,6.18,4.41,7.23,5.3Z"/><path class="cls-4" d="M72.69,13.14V38.2l-28,20.11a4,4,0,0,1-4.77,0L12,38.2V5.73a3.53,3.53,0,0,1,3.53-3.52h46Z"/><path class="cls-5" d="M61.75,10.32a2.79,2.79,0,0,0,2.82,2.82h8.12L61.75,2.21v8.11Z"/><path class="cls-2" d="M52.75,37.67h2.83a9.38,9.38,0,0,1-4.24,4.41,15.61,15.61,0,0,1-7.94,1.76,17.52,17.52,0,0,1-7.76-1.58,10.4,10.4,0,0,1-4.94-4.59,13.74,13.74,0,0,1-1.59-6.53,14.56,14.56,0,0,1,1.77-7.23A11.08,11.08,0,0,1,35.82,19a16.07,16.07,0,0,1,7.23-1.59,13.85,13.85,0,0,1,6.17,1.41,8.64,8.64,0,0,1,4.06,3.88,11.49,11.49,0,0,1,1.41,5.47,10.57,10.57,0,0,1-2.11,6.35A8,8,0,0,1,45.7,38a4.55,4.55,0,0,1-1.77-.35,1.79,1.79,0,0,1-.7-1.24A5.09,5.09,0,0,1,39.52,38a4.54,4.54,0,0,1-3.7-1.59,5.72,5.72,0,0,1-1.59-4.23,10.81,10.81,0,0,1,1.76-6A6.56,6.56,0,0,1,41.64,23,4.35,4.35,0,0,1,45.34,25l.36-1.59h3.7l-2.12,9.88a4.8,4.8,0,0,0-.17,1.23.66.66,0,0,0,.17.53c.18.18.18.18.36.18a4,4,0,0,0,1.76-.88,7.31,7.31,0,0,0,2.29-2.83,9.46,9.46,0,0,0,.89-3.7,7.36,7.36,0,0,0-2.47-5.65c-1.59-1.59-3.88-2.29-6.88-2.29a12.15,12.15,0,0,0-6.36,1.59A10,10,0,0,0,33,25.67a12.84,12.84,0,0,0-1.23,5.82,10.84,10.84,0,0,0,1.41,5.3,8.73,8.73,0,0,0,4.06,3.52,15.71,15.71,0,0,0,6,1.06,18,18,0,0,0,5.64-.88A10.49,10.49,0,0,0,52.75,37.67ZM37.76,32a4,4,0,0,0,.7,2.65,2.45,2.45,0,0,0,1.77.88,3.4,3.4,0,0,0,1.41-.35,5.09,5.09,0,0,0,1.06-.88,6.46,6.46,0,0,0,1.23-2.47,9.9,9.9,0,0,0,.53-3,3.77,3.77,0,0,0-.7-2.47A2.46,2.46,0,0,0,42,25.49a3.28,3.28,0,0,0-2.12.89A4.86,4.86,0,0,0,38.29,29,9.6,9.6,0,0,0,37.76,32Z"/></g></g></svg>