<svg xmlns="http://www.w3.org/2000/svg" viewBox="0 0 108.6 108.6"><defs><style>.cls-1{fill:#c2f5ec;}.cls-2{fill:#6e6f7c;}.cls-3{fill:#85e2d5;}.cls-4{fill:#00afaa;}.cls-5{fill:#007e85;}.cls-6{fill:#fffff5;}.cls-7{fill:#4a4f54;}</style></defs><title>Asset 6</title><g id="Layer_2" data-name="Layer 2"><g id="Layer_1-2" data-name="Layer 1"><path class="cls-1" d="M108.6,54.3A54.3,54.3,0,1,1,54.3,0a54.3,54.3,0,0,1,54.3,54.3Z"/><path class="cls-2" d="M108,46.09,54.38,9.92V68.59H36.14V84.72H17.48v.42l34.05,23.39c.92,0,1.84.07,2.77.07A54.33,54.33,0,0,0,108,46.09Z"/><rect class="cls-3" x="25.39" y="43.28" width="56.74" height="41.65"/><rect class="cls-4" x="54.38" y="43.28" width="27.75" height="41.65"/><path class="cls-4" d="M16.08,47.87l38.1-38.1,38.1,38.1Z"/><path class="cls-5" d="M54.6,9.83V47.72H92.5Z"/><rect class="cls-5" x="48.21" y="64.02" width="11.27" height="21.12"/><rect class="cls-6" x="31.23" y="55.28" width="11.42" height="11.42"/><rect class="cls-6" x="64.87" y="55.28" width="11.42" height="11.42"/><path class="cls-7" d="M23.19,84.92V71.1l-3-3.23L17.33,71.1V84.92Z"/><path class="cls-7" d="M33.71,84.92V71.1l-3-3.23L27.85,71.1V84.92Z"/><rect class="cls-7" x="13.87" y="72.41" width="19.87" height="2.27"/><rect class="cls-7" x="13.87" y="78.51" width="19.87" height="2.27"/><path class="cls-7" d="M90.27,84.92V71.1L87.4,67.87l-3,3.23V84.92Z"/><path class="cls-7" d="M79.75,84.92V71.1l-2.86-3.23-3,3.23V84.92Z"/><rect class="cls-7" x="73.87" y="72.41" width="19.87" height="2.27"/><rect class="cls-7" x="73.87" y="78.51" width="19.87" height="2.27"/></g></g></svg>