<svg xmlns="http://www.w3.org/2000/svg" viewBox="0 0 40 43.2"><defs><style>.cls-1{fill:#c9d0e1;}</style></defs><title>Asset 4</title><g id="Layer_2" data-name="Layer 2"><g id="Layer_1-2" data-name="Layer 1"><path class="cls-1" d="M20,6.4a13.6,13.6,0,0,0-4.8,26.32V40a.8.8,0,0,0,.8.8h.8v1.6a.8.8,0,0,0,.8.8h4.8a.8.8,0,0,0,.8-.8V40.8H24a.8.8,0,0,0,.8-.8V32.72A13.6,13.6,0,0,0,20,6.4Zm2.4,32.8a.8.8,0,0,0-.8.8v1.6H18.4V40a.8.8,0,0,0-.8-.8h-.8v-4h6.4v4Zm1.35-7.81a.8.8,0,0,0-.55.76V33.6H16.8V32.15a.8.8,0,0,0-.55-.76,12,12,0,1,1,7.5,0Z"/><path class="cls-1" d="M20,4.8a.8.8,0,0,0,.8-.8V.8a.8.8,0,1,0-1.6,0V4a.8.8,0,0,0,.8.8Z"/><path class="cls-1" d="M39.2,19.2H36a.8.8,0,0,0,0,1.6h3.2a.8.8,0,1,0,0-1.6Z"/><path class="cls-1" d="M4,19.2H.8a.8.8,0,1,0,0,1.6H4a.8.8,0,0,0,0-1.6Z"/><path class="cls-1" d="M33,5.86,30.75,8.12a.8.8,0,0,0,0,1.13.81.81,0,0,0,1.13,0L34.14,7a.79.79,0,0,0,0-1.13.79.79,0,0,0-1.13,0Z"/><path class="cls-1" d="M8.12,30.75,5.86,33a.79.79,0,0,0,0,1.13.77.77,0,0,0,.56.24A.8.8,0,0,0,7,34.14l2.26-2.26a.8.8,0,1,0-1.13-1.13Z"/><path class="cls-1" d="M31.88,30.75a.8.8,0,1,0-1.13,1.13L33,34.14a.8.8,0,0,0,.57.24.77.77,0,0,0,.56-.24.79.79,0,0,0,0-1.13Z"/><path class="cls-1" d="M8.12,9.25a.81.81,0,0,0,1.13,0,.8.8,0,0,0,0-1.13L7,5.86A.8.8,0,0,0,5.86,7Z"/><path class="cls-1" d="M20,10.4A9.62,9.62,0,0,0,10.4,20,.8.8,0,1,0,12,20a8,8,0,0,1,8-8,.8.8,0,0,0,0-1.6Z"/></g></g></svg>