<svg xmlns="http://www.w3.org/2000/svg" viewBox="0 0 61.56 85.55"><defs><style>.cls-1{fill:#85e2d5;}.cls-2{fill:#c2f5ec;}.cls-3{fill:#00afaa;}.cls-4{fill:#fbce9d;}.cls-5{fill:#f7b563;}.cls-6{fill:#4a4f54;}.cls-7{fill:#c9d0e1;}.cls-8{fill:#fff;}.cls-9{fill:#424a60;}</style></defs><title>Asset 5</title><g id="Layer_2" data-name="Layer 2"><g id="Layer_1-2" data-name="Layer 1"><rect class="cls-1" x="9.54" y="51.46" width="15.35" height="33.5" transform="translate(-42.85 31.58) rotate(-44.46)"/><path class="cls-2" d="M15.65,77.58,0,61.63,11,50.88l9.21,9.39a9.18,9.18,0,0,1-.12,13Z"/><path class="cls-3" d="M17.21,68.21a3.49,3.49,0,1,1,.05-4.93,3.5,3.5,0,0,1-.05,4.93Z"/><path class="cls-4" d="M54.86,23.27a4.89,4.89,0,1,0,.08-9.1Z"/><path class="cls-4" d="M54.77,33.14a4.89,4.89,0,1,0,.08-9.1Z"/><path class="cls-4" d="M54.67,43a4.89,4.89,0,1,0,.09-9.1Z"/><path class="cls-4" d="M54.58,52.88a4.89,4.89,0,1,0,.08-9.1Z"/><path class="cls-4" d="M27.36,39.68l-9.78-10a4.89,4.89,0,1,1,7-6.85l9.78,10a4.88,4.88,0,1,1-7,6.84Z"/><path class="cls-5" d="M49,58.84,27,58.63a3.2,3.2,0,0,1-3.17-3.23L24,36.28l-6.45-6.56c-.85-.3-1.37-2.87-1.3-1.76l-.16,21.3c0,.15,0,.29,0,.43l-3.25,3.19L32.47,72.81,37,68.39a10.43,10.43,0,0,0,12-9.55Z"/><path class="cls-6" d="M55,7.84,24.29,7.55l-.14,15c.13.11.28.21.4.33l9.78,10a4.88,4.88,0,1,1-7,6.84L24,36.28,23.9,48.83l30.71.29Z"/><path class="cls-7" d="M55,7.84l0-4.37A3.21,3.21,0,0,0,51.87.23L27.57,0a3.21,3.21,0,0,0-3.24,3.17l0,4.38Z"/><path class="cls-7" d="M54.55,55.69l.06-6.57L23.9,48.83l-.06,6.57A3.2,3.2,0,0,0,27,58.63l24.31.23a3.2,3.2,0,0,0,3.23-3.17Z"/><path class="cls-8" d="M41.52,55.12a2.79,2.79,0,1,1,0-3.95,2.78,2.78,0,0,1,0,3.95Z"/><path class="cls-9" d="M37.05,5.72a1.43,1.43,0,0,1-.4-1,1.4,1.4,0,0,1,1.41-1.38l3.95,0a1.4,1.4,0,0,1,0,2.79l-4,0a1.4,1.4,0,0,1-1-.41Z"/></g></g></svg>