<svg xmlns="http://www.w3.org/2000/svg" viewBox="0 0 24 24"><defs><style>.cls-1{fill:none;}.cls-2{fill:#c9d0e1;}</style></defs><title>Asset 10</title><g id="Layer_2" data-name="Layer 2"><g id="Layer_1-2" data-name="Layer 1"><polyline class="cls-1" points="0.64 0.89 9.93 14.3 10.9 15.7 10.9 20.39 7.37 16.94 9.17 13.58"/><polyline class="cls-1" points="14.18 14.7 21 12.61 0.47 0.47 0.47 18.89 10.73 15.75"/><polygon class="cls-1" points="10.9 20.39 14 14.75 0.64 0.89 10.61 15.28 10.9 20.39"/><path class="cls-2" d="M0,.47V18.89a.47.47,0,0,0,.19.38.47.47,0,0,0,.28.09l.14,0,6.5-2,3.46,3.38a.46.46,0,0,0,.33.13.57.57,0,0,0,.18,0,.47.47,0,0,0,.22-.2h0l3-5.48,6.82-2.08a.51.51,0,0,0,.33-.4.46.46,0,0,0-.23-.45l-8.37-5a.47.47,0,0,0-.64.16.48.48,0,0,0,.17.65l7.45,4.4-5.71,1.75L2.66,2.31,8.82,6a.47.47,0,0,0,.64-.16.48.48,0,0,0-.16-.65L.71.07A.47.47,0,0,0,0,.47ZM13.42,14.83l-2.05,3.74V15.7a.44.44,0,0,0-.09-.27L4.33,5.4ZM8.13,17l2.3-.71v3ZM.94,18.26V2.14l9.21,13.3Z"/><path class="cls-2" d="M16.29,16.29a.48.48,0,0,1,.67,0l4.37,4.38a.47.47,0,1,1-.66.66L16.29,17A.48.48,0,0,1,16.29,16.29Z"/><path class="cls-2" d="M22.78,22.12l1.08,1.08a.45.45,0,0,1,0,.66.46.46,0,0,1-.66,0l-1.08-1.08a.47.47,0,0,1,.66-.66Z"/><path class="cls-2" d="M17.64,23a.48.48,0,0,1,.34.14.51.51,0,0,1,.13.33.47.47,0,0,1-.13.33.48.48,0,0,1-.34.14.46.46,0,0,1-.46-.47.51.51,0,0,1,.13-.33A.47.47,0,0,1,17.64,23Z"/><path class="cls-2" d="M14.49,19.68,16.81,22a.47.47,0,0,1-.34.8.43.43,0,0,1-.33-.14l-2.31-2.31a.47.47,0,0,1,0-.67A.47.47,0,0,1,14.49,19.68Z"/><path class="cls-2" d="M6.49,19.51l2.32,2.32a.45.45,0,0,1,0,.66.46.46,0,0,1-.66,0L5.83,20.17a.47.47,0,0,1,.66-.66Z"/><path class="cls-2" d="M11,7.19a.47.47,0,0,1-.33-.14.45.45,0,0,1-.14-.33A.48.48,0,0,1,11,6.25a.44.44,0,0,1,.33.14.47.47,0,0,1,.14.33.45.45,0,0,1-.14.33A.44.44,0,0,1,11,7.19Z"/></g></g></svg>