<svg xmlns="http://www.w3.org/2000/svg" viewBox="0 0 43 43"><defs><style>.cls-1{fill:none;}.cls-2{fill:#c9d0e1;}</style></defs><title>Asset 1</title><g id="Layer_2" data-name="Layer 2"><g id="Layer_1-2" data-name="Layer 1"><polyline class="cls-1" points="41.85 1.6 25.21 25.62 23.47 28.13 23.47 36.54 29.8 30.36 26.57 24.33"/><polyline class="cls-1" points="17.59 26.33 5.38 22.59 42.16 0.84 42.16 33.85 23.77 28.22"/><polygon class="cls-1" points="23.47 36.54 17.92 26.43 41.85 1.6 23.99 27.38 23.47 36.54"/><path class="cls-2" d="M42.58.11a.83.83,0,0,0-.85,0L26.34,9.22a.84.84,0,0,0,.86,1.44l11-6.53L17.67,25.48,7.44,22.35l13.35-7.9a.85.85,0,0,0,.3-1.15A.83.83,0,0,0,19.94,13L5,21.87a.83.83,0,0,0,.18,1.52l12.22,3.74,5.39,9.81s0,0,0,0a.84.84,0,0,0,.4.34.71.71,0,0,0,.32.07.82.82,0,0,0,.59-.24l6.2-6.06,11.65,3.57a1.09,1.09,0,0,0,.25,0,.84.84,0,0,0,.5-.17.85.85,0,0,0,.34-.67V.84A.84.84,0,0,0,42.58.11ZM35.24,9.67l-12.46,18a.83.83,0,0,0-.15.48v5.14L19,26.57ZM24.31,34.54V29.26l4.12,1.26Zm.51-6.88L41.32,3.84V32.71Z"/><path class="cls-2" d="M13.81,29.19a.84.84,0,0,0-1.19,0L4.78,37a.84.84,0,0,0,0,1.19.86.86,0,0,0,1.19,0l7.84-7.84A.84.84,0,0,0,13.81,29.19Z"/><path class="cls-2" d="M2.18,39.63.25,41.57a.83.83,0,0,0,0,1.18A.79.79,0,0,0,.84,43a.81.81,0,0,0,.59-.25l1.94-1.93a.84.84,0,1,0-1.19-1.19Z"/><path class="cls-2" d="M11.39,41.27a.84.84,0,0,0-.6.25.84.84,0,0,0,.6,1.43A.83.83,0,0,0,12,42.7a.82.82,0,0,0,0-1.18A.83.83,0,0,0,11.39,41.27Z"/><path class="cls-2" d="M17,35.27l-4.15,4.15a.84.84,0,0,0,.59,1.43.86.86,0,0,0,.6-.24l4.15-4.15A.84.84,0,0,0,17,35.27Z"/><path class="cls-2" d="M31.37,35l-4.16,4.16a.84.84,0,0,0,0,1.19.85.85,0,0,0,.59.25.87.87,0,0,0,.6-.25l4.16-4.16A.84.84,0,1,0,31.37,35Z"/><path class="cls-2" d="M23.22,12.88a.87.87,0,0,0,.59-.24.86.86,0,0,0,.25-.6.82.82,0,0,0-.25-.59.83.83,0,0,0-1.19,0,.85.85,0,0,0-.24.59.89.89,0,0,0,.24.6A.87.87,0,0,0,23.22,12.88Z"/></g></g></svg>