<svg xmlns="http://www.w3.org/2000/svg" viewBox="0 0 155.78 155.78"><defs><style>.cls-1{fill:#1e2e3b;}.cls-2{fill:#fff;}.cls-3{fill:#6e6f7c;}.cls-4{fill:#4a4f54;}.cls-5{fill:#f2f2f2;}.cls-6{fill:#fca677;}.cls-7{fill:#e65300;}.cls-8{fill:#d12d00;}.cls-9{fill:#e4eaef;}</style></defs><title>Asset 3</title><g id="Layer_2" data-name="Layer 2"><g id="Layer_1-2" data-name="Layer 1"><path class="cls-1" d="M149.28,24.34H6.49A6.51,6.51,0,0,0,0,30.83v96.71A6.51,6.51,0,0,0,6.49,134H149.28a6.52,6.52,0,0,0,6.5-6.49V30.83A6.52,6.52,0,0,0,149.28,24.34Z"/><rect class="cls-2" x="9.74" y="34.08" width="136.3" height="89.9"/><rect class="cls-3" x="48.03" y="134.03" width="59.39" height="17.52"/><rect class="cls-2" x="30.18" y="151.56" width="95.41" height="4.22"/><rect class="cls-4" x="48.03" y="134.03" width="59.39" height="4.87"/><path class="cls-5" d="M134.36,36.35v82.43a5.13,5.13,0,0,1-5.2,5.19H26.29a5.13,5.13,0,0,1-5.2-5.19V36.35Z"/><path class="cls-2" d="M78.54,59.39V71.72h-1.3V59.39Z"/><path class="cls-2" d="M78.54,106.77V119.1h-1.3V106.77h1.3Z"/><path class="cls-2" d="M99.31,68.48l-8.77,8.76-1-1,8.76-8.77Z"/><path class="cls-2" d="M65.88,102.23,57.12,111l-1-1,8.77-8.77Z"/><path class="cls-2" d="M107.74,88.6v1.3h-12V88.6Z"/><path class="cls-2" d="M60.36,89.25v.65h-12V88.6h12Z"/><path class="cls-2" d="M99.31,109.69l-1,1-8.43-8.44,1-1Z"/><path class="cls-2" d="M65.88,76.27l-1,1-8.77-8.76,1-1Z"/><path class="cls-2" d="M71.72,72.7c-.32,0-.65.32-1.3.64L67.5,66.53l1.3-.65Z"/><path class="cls-2" d="M88,112.29l-1.3.65-2.92-6.82c.32,0,.65-.32,1.3-.65Z"/><path class="cls-2" d="M62,81.78c-.33.33-.33.65-.65,1.3l-6.82-2.92.65-1.3Z"/><path class="cls-2" d="M101.25,98.33l-.64,1.3-6.82-2.92c.32-.32.32-.65.65-1.3Z"/><path class="cls-2" d="M62,96.39l-6.82,2.92L54.52,98l6.82-2.92C61.66,95.74,61.66,96.06,62,96.39Z"/><path class="cls-2" d="M101.25,80.16l-6.81,2.92c0-.32-.33-.65-.65-1.3l6.82-2.92Z"/><path class="cls-2" d="M71.72,105.8l-2.92,6.81L67.5,112l2.92-6.81C71.07,105.47,71.4,105.47,71.72,105.8Z"/><path class="cls-2" d="M88,66.2,85.35,73c-.32-.32-.65-.32-1.3-.65L87,65.56Z"/><path class="cls-6" d="M127.87,0h-100a6.51,6.51,0,0,0-6.49,6.49V23.37H134.68V6.49A7,7,0,0,0,127.87,0Z"/><polygon class="cls-3" points="100.93 85.03 107.1 107.1 112.61 101.58 117.81 107.1 122.67 102.23 117.48 96.71 122.67 91.19 100.93 85.03"/><circle class="cls-7" cx="63.93" cy="11.68" r="3.89"/><circle class="cls-8" cx="49" cy="11.68" r="3.89"/><circle class="cls-7" cx="34.08" cy="11.68" r="3.89"/><path class="cls-9" d="M134.36,38.94V54.2a11.09,11.09,0,0,1-7.14,2.27,12.33,12.33,0,0,1-12.34-12.33,12.33,12.33,0,0,1-24.66,0,12.33,12.33,0,0,1-24.66,0,12.34,12.34,0,0,1-24.67,0A12.33,12.33,0,0,1,28.56,56.47a13.29,13.29,0,0,1-7.14-2.27V38.94Z"/><polygon class="cls-7" points="40.89 36.35 16.23 36.35 21.42 23.37 43.81 23.37 40.89 36.35"/><polygon class="cls-3" points="65.56 36.35 40.89 36.35 43.81 23.37 66.53 23.37 65.56 36.35"/><polygon class="cls-7" points="90.22 36.35 65.56 36.35 66.53 23.37 89.25 23.37 90.22 36.35"/><polygon class="cls-3" points="114.88 36.35 90.22 36.35 89.25 23.37 111.96 23.37 114.88 36.35"/><polygon class="cls-7" points="139.55 36.35 114.88 36.35 111.96 23.37 134.36 23.37 139.55 36.35"/><path class="cls-4" d="M40.89,41.86a12.34,12.34,0,1,0,24.67,0V36.35H40.89v5.51Z"/><path class="cls-4" d="M90.22,36.35v5.51a12.33,12.33,0,1,0,24.66,0V36.35Z"/><path class="cls-8" d="M16.23,41.86a12.33,12.33,0,1,0,24.66,0V36.35H16.23Z"/><path class="cls-8" d="M65.56,41.86a12.33,12.33,0,1,0,24.66,0V36.35H65.56v5.51Z"/><path class="cls-8" d="M114.88,36.35v5.51a12.34,12.34,0,1,0,24.67,0V36.35Z"/><ellipse class="cls-7" cx="77.89" cy="89.25" rx="19.15" ry="19.47"/><path class="cls-2" d="M74.64,95.09,74,92.82H88.92V81.46H71.07l-1-4.22H64.91v2H68.8L73.34,97H89.57v-2ZM87,83.08v7.46H73.67l-2-7.46Z"/><circle class="cls-2" cx="77.56" cy="100.61" r="2.27"/><circle class="cls-2" cx="86" cy="100.61" r="2.27"/></g></g></svg>